<svg xmlns="http://www.w3.org/2000/svg" xmlns:xlink="http://www.w3.org/1999/xlink" viewBox="82.21 74.2 90.55 108.76"><defs><linearGradient id="gradient_0" gradientUnits="userSpaceOnUse" x1="391.19943" y1="666.79968" x2="501.90375" y2="390.99442"><stop offset="0" stop-color="#011E3B"/><stop offset="1" stop-color="#134372"/></linearGradient></defs><path fill="url(#gradient_0)" transform="scale(0.25 0.25)" d="M375.362 347.738L413.679 332.733C420.331 330.144 429.251 326.45 435.915 324.387C435.92 338.926 436.149 354.058 435.909 368.544L435.797 377.023C432.977 378.792 419.172 383.656 414.973 385.117C402.5 389.455 388.842 395.367 376.383 399.392L376.483 498.668C376.482 533.454 371.423 570.057 398.841 596.865C405.932 603.797 413.478 608.713 421.59 614.241L450.487 633.848C456.428 637.833 463.854 642.464 469.383 646.762C473.666 643.012 483.802 635.183 488.511 632.063C482.988 629.279 476.451 624.586 471.246 621.016L447.885 604.901C439.338 598.959 421.94 587.921 415.531 581.259C409.258 574.696 404.521 566.822 401.663 558.205C397.493 545.486 399.334 514.92 399.053 499.934C406.271 486.074 434.143 458.692 448.051 452.267C456.1 446.054 470.292 440.118 480.092 437.021C483.806 435.848 487.499 435.657 490.917 433.83C499.547 431.303 520.969 430.813 529.021 434.237C531.634 435.458 535.176 436.191 538.03 437.145C545.672 439.702 558.12 443.943 564.568 448.417C583.948 458.196 609.436 480.47 620.324 500C620.545 500.395 620.579 501.456 620.577 501.95L620.549 529.801C620.481 551.14 619.763 565.329 603.59 581.629C596.624 588.649 589.214 593.067 581.184 598.654L551.402 619.43L449.531 691.487C439.768 685.716 423.8 674.225 414.105 667.671C399.892 658.064 377.888 644.372 366.152 632.846C349.382 616.398 337.635 595.522 332.279 572.652C327.596 553.177 329.055 516.085 329.011 494.301L328.931 365.359L375.362 347.738ZM546.5 466.478C536.05 455.708 521.396 450.071 506.421 451.062C491.447 452.052 477.663 459.569 468.722 471.622C452.533 493.445 456.234 524.117 477.15 541.461C498.066 558.806 528.893 556.767 547.343 536.819C565.792 516.871 565.422 485.979 546.5 466.478Z"/><path fill="#9C9C9C" transform="scale(0.25 0.25)" d="M490.917 433.83C499.547 431.303 520.969 430.813 529.021 434.237C531.634 435.458 535.176 436.191 538.03 437.145C545.672 439.702 558.12 443.943 564.568 448.417C583.948 458.196 609.436 480.47 620.324 500C620.545 500.395 620.579 501.456 620.577 501.95C619.145 504.056 617.691 506.148 616.216 508.226C595.802 536.816 561.527 562.978 526.246 568.946C477.62 577.172 432.563 546.475 404.347 509.32C402.482 506.864 399.538 502.985 399.053 499.934C406.271 486.074 434.143 458.692 448.051 452.267C456.1 446.054 470.292 440.118 480.092 437.021C483.806 435.848 487.499 435.657 490.917 433.83ZM546.5 466.478C536.05 455.708 521.396 450.071 506.421 451.062C491.447 452.052 477.663 459.569 468.722 471.622C452.533 493.445 456.234 524.117 477.15 541.461C498.066 558.806 528.893 556.767 547.343 536.819C565.792 516.871 565.422 485.979 546.5 466.478Z"/><path fill="#0A3157" transform="scale(0.25 0.25)" d="M505.237 468.113C515.986 466.858 523.467 469.761 532.14 475.766C525.074 475.778 518.437 476.671 515.443 484.325C514.312 487.174 514.388 490.362 515.656 493.153C517.807 497.855 521.217 499.38 525.661 500.885C533.781 499.845 540.976 494.904 539.051 485.771L539.502 485.449C541.78 486.878 543.369 494.134 543.859 496.87C545.774 507.558 542.741 515.32 536.718 524.014C524.635 536.887 506.642 541.167 491.306 531.182C483.444 526.112 477.97 518.074 476.132 508.902C474.36 499.823 476.294 490.412 481.504 482.769C487.434 473.961 495.165 470.156 505.237 468.113Z"/><path fill="#D4D3D3" transform="scale(0.25 0.25)" d="M490.917 433.83C499.547 431.303 520.969 430.813 529.021 434.237C531.634 435.458 535.176 436.191 538.03 437.145C545.672 439.702 558.12 443.943 564.568 448.417L564.405 449.068C561.506 447.747 553.994 443.57 551.622 443.133C549.431 444.3 538.042 453.871 534.388 456.522C534.84 457.048 534.358 456.981 535.658 457.29C537.918 457.827 546.387 464.597 547.294 466.318L546.5 466.478C536.05 455.708 521.396 450.071 506.421 451.062C491.447 452.052 477.663 459.569 468.722 471.622L468.559 470.95C469.523 467.239 478.772 460.85 481.816 458.624L481.53 457.963C475.987 456.426 467.464 449.537 464.252 445.627C461.947 442.821 452.52 452.206 448.051 452.267C456.1 446.054 470.292 440.118 480.092 437.021C483.806 435.848 487.499 435.657 490.917 433.83Z"/><path fill="#1E558C" transform="scale(0.25 0.25)" d="M375.362 347.738L413.679 332.733C420.331 330.144 429.251 326.45 435.915 324.387C435.92 338.926 436.149 354.058 435.909 368.544C435.425 369.098 435.72 368.913 435.032 369.114L434.938 365.828C430.567 362.914 422.373 362.16 418.452 359.934C408.962 354.548 403.676 350.421 392.236 350.997C388.654 351.177 386.46 350.095 384.004 347.252L383.52 346.683C380.168 345.646 379.186 348.168 375.362 347.738Z"/><path fill="#9C9C9C" transform="scale(0.25 0.25)" d="M490.056 593.597C495.742 593.376 525.753 592.735 529.49 594.35C531.126 597.732 530.575 610.755 530.422 615.09L489.463 615.006C489.388 610.734 488.873 597.115 490.056 593.597Z"/><defs><linearGradient id="gradient_1" gradientUnits="userSpaceOnUse" x1="615.21198" y1="706.13184" x2="550.49237" y2="422.20023"><stop offset="0" stop-color="#01203E"/><stop offset="1" stop-color="#1A497C"/></linearGradient></defs><path fill="url(#gradient_1)" transform="scale(0.25 0.25)" d="M643.146 400.413C645.167 402.088 644.488 404.357 647.333 403.898C651.221 400.139 663.86 397.67 669.353 396.432C673.153 395.575 675.793 398.531 679.657 394.763C682.41 392.079 686.791 400.058 689.958 400.949C690.457 400.11 690.583 398.746 690.779 397.704C691.136 435.125 691.095 472.548 690.658 509.967C690.257 534.26 692.486 553.731 686.081 577.699C680.75 597.47 670.419 615.536 656.083 630.157C642.786 643.753 628.779 651.751 613.041 662.236C599.956 670.923 586.966 679.754 574.075 688.727C559.458 698.871 544.758 708.894 529.976 718.794C525.342 721.902 514.356 729.636 509.751 731.822C496.072 723.024 482.651 713.802 468.981 704.939L570.817 633.112C578.535 627.63 586.286 622.194 594.069 616.803C604.141 609.868 615.744 602.712 623.865 593.53C634.726 581.251 642.443 562.314 642.936 545.831C643.262 534.923 642.998 523.648 642.986 512.751L642.949 447.796C642.883 437.749 642.878 427.701 642.936 417.653C642.951 412.506 642.776 405.321 643.146 400.413Z"/><defs><linearGradient id="gradient_2" gradientUnits="userSpaceOnUse" x1="496.32062" y1="432.82962" x2="519.23645" y2="299.67566"><stop offset="0" stop-color="#17AB9D"/><stop offset="1" stop-color="#35F0D3"/></linearGradient></defs><path fill="url(#gradient_2)" transform="scale(0.25 0.25)" d="M509.652 296.783C513.154 299.28 518.15 304.748 521.337 308.004L539.944 327.047C546.015 333.251 552.194 339.345 558.273 345.54C561.67 349.002 562.645 351.263 563.731 355.794C560.195 370.839 548.413 372.001 538.097 362.2C534.993 359.251 531.797 356.42 528.975 353.158L529.192 405.631C529.221 413.327 529.612 426.933 529.021 434.237C520.969 430.813 499.547 431.303 490.917 433.83C490.698 407.655 491.466 379.632 490.564 353.682C484.422 359.361 477.509 367.874 468.517 368.194C459.818 369.045 453.09 355.136 458.398 349.057C467.174 339.004 477.322 328.45 486.978 319.126C493.316 313.006 502.884 301.784 509.652 296.783Z"/><path fill="#1E558C" transform="scale(0.25 0.25)" d="M584.006 324.561C609.009 333.408 633.833 344.223 658.827 353.281C669.307 357.08 680.179 361.212 690.518 365.317L690.779 397.704C690.583 398.746 690.457 400.11 689.958 400.949C686.791 400.058 682.41 392.079 679.657 394.763C675.793 398.531 673.153 395.575 669.353 396.432C663.86 397.67 651.221 400.139 647.333 403.898C644.488 404.357 645.167 402.088 643.146 400.413C642.924 400.088 642.701 399.763 642.478 399.438C626.496 393.811 598.731 382.25 583.981 377.491L584.006 324.561Z"/></svg>