<?xml version="1.0" encoding="utf-8" ?><svg xmlns="http://www.w3.org/2000/svg" xmlns:xlink="http://www.w3.org/1999/xlink" width="168" height="48" viewBox="0 0 168 48"><path fill="#E5E5E5" transform="matrix(0.0521739 0 0 0.0519481 -7.62939e-06 -9.53674e-07)" d="M0 0L3220 0L3220 924L0 924L0 0Z"/><defs><linearGradient id="gradient_0" gradientUnits="userSpaceOnUse" x1="260.39755" y1="758.76495" x2="441.84735" y2="221.50246"><stop offset="0" stop-color="#001333"/><stop offset="1" stop-color="#0A3F70"/></linearGradient></defs><path fill="url(#gradient_0)" transform="matrix(0.0521739 0 0 0.0519481 -7.62939e-06 -9.53674e-07)" d="M178.709 179.287L320.284 123.816L321.06 181.996C321.146 189.662 321.403 212.675 320.078 219.458C319.949 219.643 318.661 221.497 318.661 221.497C283.927 234.782 248.547 246.826 213.675 259.829C214.52 322.889 214.71 385.957 214.245 449.022L214.109 499.203C214.031 513.285 213.296 531.324 215.89 544.662C221.203 571.98 235.4 601.962 256.282 621.098C293.72 655.406 342.232 679.867 382.438 710.662C391.836 702.844 404.464 691.271 413.723 684.42C374.101 656.574 332.799 630.033 293.996 601.04C275.703 587.372 258.859 560.81 255.167 538.168C251.364 511.631 253.08 483.098 252.951 456.227C252.321 450.09 252.386 444.884 255.883 439.671C278.232 406.36 314.411 374.144 347.844 353.708C360.129 342.382 400.143 328.52 416.481 322.834C416.711 312.841 417.926 294.477 418.407 284.596C419.231 267.656 417.676 218.975 420.832 205.425C421.033 198.152 421.156 190.877 421.2 183.602C427.145 192.198 424.284 188.919 424.449 197.946L425.554 198.509C426.201 197.922 427.028 197.489 427.757 197.009C429.89 199.548 427.479 200.665 429.17 201.95C431.145 203.451 431.734 203.888 432.592 206.354L435.561 206.452C434.377 204.266 434.39 203.463 434.691 201.013C437.508 198.782 436.173 199.292 439.716 199.046C441.011 200.051 442.278 201.018 443.527 202.08C446.936 198.911 452.427 193.225 456.537 192.048C458.545 192.891 458.846 193.186 460.491 194.627L462.517 194.525L463.792 191.953C466.528 191.821 465.97 191.411 467.62 192.726L467.583 195.348C472.43 193.503 468.504 189.712 475.851 191.503C480.372 189.08 482.485 187.341 483.537 182.222L485.22 180.748L486.681 181.267C487.211 187.338 486.868 192.406 486.587 198.472L487.333 198.429C488.727 195.389 489.232 193.522 490.142 190.299C491.092 230.527 489.411 271.115 490.587 311.386C490.706 315.464 490.812 320.041 490.635 324.105C493.152 326.853 505.691 328.468 511.985 330.706C525.183 335.4 564.796 352.979 574.036 361.668C603.14 381.09 626.532 400.351 647.521 428.615C650.373 432.455 655.665 439.59 657.044 443.965C660.486 455.523 657.715 524.434 655.375 538.947C648.341 582.58 609.195 606.906 575.514 630.218L507.585 677.327C475.238 700.192 443.081 723.591 410.875 746.669C389.428 762.038 368.46 777.758 346.097 791.834L264.927 736.436C236.935 717.353 203.902 698.05 182.092 672.288C156.976 642.621 140.228 606.178 132.633 568.154C125.377 531.827 127.31 488.231 127.316 450.596C127.135 403.967 127.218 357.337 127.565 310.709C127.783 289.769 127.793 268.828 127.594 247.888C127.476 232.937 126.961 213.453 128.141 198.978C139.118 193.222 166.475 182.774 178.709 179.287Z"/><path fill="#959697" transform="matrix(0.0521739 0 0 0.0519481 -7.62939e-06 -9.53674e-07)" d="M421.2 183.602C427.145 192.198 424.284 188.919 424.449 197.946L425.554 198.509C426.201 197.922 427.028 197.489 427.757 197.009C429.89 199.548 427.479 200.665 429.17 201.95C431.145 203.451 431.734 203.888 432.592 206.354L435.561 206.452C434.377 204.266 434.39 203.463 434.691 201.013C437.508 198.782 436.173 199.292 439.716 199.046C441.011 200.051 442.278 201.018 443.527 202.08C446.936 198.911 452.427 193.225 456.537 192.048C458.545 192.891 458.846 193.186 460.491 194.627L462.517 194.525L463.792 191.953C466.528 191.821 465.97 191.411 467.62 192.726L467.583 195.348C472.43 193.503 468.504 189.712 475.851 191.503C480.372 189.08 482.485 187.341 483.537 182.222L485.22 180.748L486.681 181.267C487.211 187.338 486.868 192.406 486.587 198.472L487.333 198.429C488.727 195.389 489.232 193.522 490.142 190.299C491.092 230.527 489.411 271.115 490.587 311.386C490.706 315.464 490.812 320.041 490.635 324.105C493.152 326.853 505.691 328.468 511.985 330.706C525.183 335.4 564.796 352.979 574.036 361.668C603.14 381.09 626.532 400.351 647.521 428.615C650.373 432.455 655.665 439.59 657.044 443.965C654.29 445.076 647.877 457.384 645.599 460.718C593.036 537.64 497.25 593.193 402.374 564.939C350.986 549.145 305.954 517.415 273.789 474.338C271.718 471.601 254.995 446.82 254.595 446.614L252.951 456.227C252.321 450.09 252.386 444.884 255.883 439.671C278.232 406.36 314.411 374.144 347.844 353.708C360.129 342.382 400.143 328.52 416.481 322.834C416.711 312.841 417.926 294.477 418.407 284.596C419.231 267.656 417.676 218.975 420.832 205.425C421.033 198.152 421.156 190.877 421.2 183.602Z"/><path fill="#E5E5E5" transform="matrix(0.0521739 0 0 0.0519481 -7.62939e-06 -9.53674e-07)" d="M390.597 381.791C408.731 364.036 433.337 354.473 458.701 355.322C484.064 356.171 507.976 367.359 524.882 386.286C558.693 424.141 555.865 482.125 518.53 516.51C481.196 550.895 423.176 548.952 388.225 512.147C353.274 475.342 354.33 417.299 390.597 381.791Z"/><path fill="#022B55" transform="matrix(0.0521739 0 0 0.0519481 -7.62939e-06 -9.53674e-07)" d="M445.044 385.277C465.916 382.91 477.766 387.738 495.917 397.789C486.396 399.793 478.884 400.717 471.426 407.692C462.07 416.444 461.415 430.349 470.69 439.385C475.591 444.084 482.174 446.618 488.961 446.416C506.883 445.865 510.11 430.313 509.742 415.851C525.857 441.652 520.71 468.039 503.098 491.66C494.411 501.351 481.871 508.408 469.239 511.361C453.444 514.971 436.862 512.183 423.117 503.605C374.839 473.435 384.931 398.657 445.044 385.277Z"/><defs><linearGradient id="gradient_1" gradientUnits="userSpaceOnUse" x1="445.56006" y1="322.21936" x2="467.06909" y2="178.17323"><stop offset="0" stop-color="#12948F"/><stop offset="1" stop-color="#42DCC5"/></linearGradient></defs><path fill="url(#gradient_1)" transform="matrix(0.0521739 0 0 0.0519481 -7.62939e-06 -9.53674e-07)" d="M421.2 183.602C427.145 192.198 424.284 188.919 424.449 197.946L425.554 198.509C426.201 197.922 427.028 197.489 427.757 197.009C429.89 199.548 427.479 200.665 429.17 201.95C431.145 203.451 431.734 203.888 432.592 206.354L435.561 206.452C434.377 204.266 434.39 203.463 434.691 201.013C437.508 198.782 436.173 199.292 439.716 199.046C441.011 200.051 442.278 201.018 443.527 202.08C446.936 198.911 452.427 193.225 456.537 192.048C458.545 192.891 458.846 193.186 460.491 194.627L462.517 194.525L463.792 191.953C466.528 191.821 465.97 191.411 467.62 192.726L467.583 195.348C472.43 193.503 468.504 189.712 475.851 191.503C480.372 189.08 482.485 187.341 483.537 182.222L485.22 180.748L486.681 181.267C487.211 187.338 486.868 192.406 486.587 198.472L487.333 198.429C488.727 195.389 489.232 193.522 490.142 190.299C491.092 230.527 489.411 271.115 490.587 311.386C490.706 315.464 490.812 320.041 490.635 324.105C493.152 326.853 505.691 328.468 511.985 330.706C525.183 335.4 564.796 352.979 574.036 361.668L573.595 361.574C563.095 359.277 556.653 351.374 549.691 350.155L549.938 354.349L548.555 355.395L545.636 354.898L545.794 355.267C546.44 356.807 546.473 356.899 546.603 358.535C541.071 363.594 536.251 364.958 532.034 370.938C529.492 374.543 521.912 376.009 517.886 377.687C520.088 379.802 523.422 382.753 524.976 385.218L524.882 386.286C507.976 367.359 484.064 356.171 458.701 355.322C433.337 354.473 408.731 364.036 390.597 381.791C394.209 374.298 397.475 376.909 398.751 372.348C386.947 374.703 379.57 361.056 369.231 355.69C366.644 354.347 365.972 350.384 363.899 347.526C359.143 347.708 354.307 353.017 347.844 353.708C360.129 342.382 400.143 328.52 416.481 322.834C416.711 312.841 417.926 294.477 418.407 284.596C419.231 267.656 417.676 218.975 420.832 205.425C421.033 198.152 421.156 190.877 421.2 183.602Z"/><path fill="#CDCBCC" transform="matrix(0.0521739 0 0 0.0519481 -7.62939e-06 -9.53674e-07)" d="M416.481 322.834C416.711 312.841 417.926 294.477 418.407 284.596C419.231 267.656 417.676 218.975 420.832 205.425C421.315 243.559 420.189 284.327 419.88 322.645C443.87 321.478 466.851 319.473 490.635 324.105C493.152 326.853 505.691 328.468 511.985 330.706C525.183 335.4 564.796 352.979 574.036 361.668L573.595 361.574C563.095 359.277 556.653 351.374 549.691 350.155L549.938 354.349L548.555 355.395L545.636 354.898L545.794 355.267C546.44 356.807 546.473 356.899 546.603 358.535C541.071 363.594 536.251 364.958 532.034 370.938C529.492 374.543 521.912 376.009 517.886 377.687C520.088 379.802 523.422 382.753 524.976 385.218L524.882 386.286C507.976 367.359 484.064 356.171 458.701 355.322C433.337 354.473 408.731 364.036 390.597 381.791C394.209 374.298 397.475 376.909 398.751 372.348C386.947 374.703 379.57 361.056 369.231 355.69C366.644 354.347 365.972 350.384 363.899 347.526C359.143 347.708 354.307 353.017 347.844 353.708C360.129 342.382 400.143 328.52 416.481 322.834Z"/><path fill="#124B7F" transform="matrix(0.0521739 0 0 0.0519481 -7.62939e-06 -9.53674e-07)" d="M178.709 179.287L320.284 123.816L321.06 181.996C321.146 189.662 321.403 212.675 320.078 219.458C319.252 209.875 319.308 190.009 317.032 181.599L315.787 181.1C310.571 189.323 313.282 201.61 303.094 203.494C296.034 204.8 295.891 204.161 292.832 210.557L291.745 210.41C286.414 199.876 281.548 193.159 272.648 207.064C271.72 208.514 276.428 211.641 277.062 214.995C273.677 216.967 273.09 213.909 269.46 216.534C269.065 219.357 269.184 219.686 270.444 222.256C272.309 222.919 272.809 223.058 274.772 223.297C275.194 225.724 274.693 225.588 273.302 228.134L271.499 228.935L268.993 227.525L266.137 228.627L265.098 227.003L265.797 225.108L268.054 224.645C268.269 220.902 267.491 215.587 263.522 213.982C262.979 216.348 263.01 216.712 261.653 218.657L258.586 218.261C258.449 212.697 260.443 214.835 258.017 210.476C255.331 212.442 257.779 213.695 255.468 218.295L253.926 218.54L253.142 215.822C250.301 214.702 247.647 213.392 244.829 212.256L241.821 213.939C237.517 213.048 233.127 206.972 230.41 203.502C219.031 210.536 225.542 198.661 208.823 195.589C203.152 197.588 207.426 201.959 201.258 201.825L199.293 198.717C197 198.749 193.219 200.423 189.803 201.038C185.654 198.016 190.889 199.002 188.804 192.997L186.806 192.564L186.018 196.319C182.563 198.357 182.7 193.517 175.599 195.519L174.121 194.408C174.444 186.47 180.142 186.865 185.621 187.235C185.972 184.697 185.618 183.937 185.001 181.497L186.615 180.029C191.126 179.95 191.657 180.228 194.442 176.996C188.901 178.411 184.504 179.804 178.709 179.287Z"/><path fill="#124B7F" transform="matrix(0.0521739 0 0 0.0519481 -7.62939e-06 -9.53674e-07)" d="M257.847 228.78C259.93 225.834 259.427 225.485 262.201 224.626C263.334 225.481 264.096 225.978 265.098 227.003L262.02 230.537C259.397 230.614 260.449 230.858 257.847 228.78Z"/><path fill="#959697" transform="matrix(0.0521739 0 0 0.0519481 -7.62939e-06 -9.53674e-07)" d="M418.996 614.31C443.454 614.189 467.914 614.29 492.37 614.611C493.58 624.32 494.89 645.349 493.58 654.449C471.16 653.054 441.251 653.483 418.407 653.569C417.777 644.598 416.856 622.27 418.996 614.31Z"/><path fill="#124B7F" transform="matrix(0.0521739 0 0 0.0519481 -7.62939e-06 -9.53674e-07)" d="M280.71 202.581L284.212 203.769C286.576 206.444 285.73 206.337 285.52 211.105C283.288 209.91 281.056 205.13 280.71 202.581Z"/><defs><linearGradient id="gradient_2" gradientUnits="userSpaceOnUse" x1="652.19006" y1="818.73291" x2="507.76596" y2="148.36276"><stop offset="0" stop-color="#001738"/><stop offset="1" stop-color="#23578F"/></linearGradient></defs><path fill="url(#gradient_2)" transform="matrix(0.0521739 0 0 0.0519481 -7.62939e-06 -9.53674e-07)" d="M588.062 125.068C591.571 125.8 624.063 138.514 630.313 140.825L724.72 176.273C738.622 181.382 772.936 192.328 783.977 199.251C785.316 213.323 784.787 232.476 784.72 246.934C784.526 270.609 784.535 294.285 784.746 317.96L784.704 460.413C784.737 491.58 787.179 532.827 781.64 562.383C770.493 621.866 736.51 678.016 684.601 710.188C660.582 725.073 636.353 741.411 612.981 757.291L466.491 858.147L456.203 865.017C433.195 850.433 404.867 832.29 383.903 815.584C405.507 797.339 432.382 779.261 455.85 762.534L584.683 671.52C602.401 658.963 637.92 635.52 652.443 621.988C672.029 604.061 685.96 580.809 692.527 555.082C700.672 523.254 696.713 476.642 697.11 442.812C697.814 382.863 694.749 319.768 696.718 260.034C666.037 245.861 621.399 232.684 588.074 219.308C588.301 187.275 588.637 157.222 588.062 125.068Z"/><path fill="#124B7F" transform="matrix(0.0521739 0 0 0.0519481 -7.62939e-06 -9.53674e-07)" d="M704.348 173.256C709.155 173.273 734.504 181.299 735.962 184.616L733.395 187.577C737.095 190.331 741.97 183.933 746.423 189.737C745.466 194.341 745.174 195.004 742.23 198.632C741.397 199.01 739.902 199.552 739.005 199.454C723.874 197.808 725.644 196.372 717.303 187.411C714.578 187.58 714.542 188.426 712.073 190.634C706.542 184.841 711.56 182.592 709.411 176.723C709.699 177.509 705.72 175.204 704.348 173.256Z"/><path fill="#124B7F" transform="matrix(0.0521739 0 0 0.0519481 -7.62939e-06 -9.53674e-07)" d="M698.294 176.497C703.374 177.584 706.818 178.637 708.012 183.93C706.592 186.196 707.003 185.501 704.2 186.851L702.18 183.751C699.839 183.577 699.429 183.477 697.224 182.669C696.858 179.882 697.335 179.046 698.294 176.497Z"/><path fill="#707172" transform="matrix(0.0521739 0 0 0.0519481 -7.62939e-06 -9.53674e-07)" d="M2181.06 521.713C2199.79 526.346 2232.86 533.455 2245.21 512.738C2248.84 505.363 2245.8 494.318 2238.84 489.738C2207.15 468.879 2147.29 474.985 2132.82 431.792C2122.27 396.665 2139.99 359.715 2175.86 348.982C2215.45 337.139 2250.45 346.881 2285.91 364.822C2282.19 373.799 2273.74 394.789 2269.01 402.34C2246.99 389.751 2198.31 371.216 2180.69 393.975C2161.88 422.837 2205.31 432.214 2222.32 436.433C2252.1 443.821 2290.38 454.458 2291.93 491.049C2295.86 583.178 2177.15 581.229 2124.69 537.657C2127.62 530.527 2131.02 521.54 2134.62 514.898C2136.74 509.582 2138.51 505.569 2141.05 500.441C2154.06 510.12 2165.89 515.732 2181.06 521.713Z"/><path fill="#666667" transform="matrix(0.0521739 0 0 0.0519481 -7.62939e-06 -9.53674e-07)" d="M2141.05 500.441C2154.06 510.12 2165.89 515.732 2181.06 521.713C2180.9 522.679 2180.92 522.31 2180.18 523.243C2177.8 522.343 2175.89 521.702 2173.37 521.2C2163.5 519.236 2154.86 512.801 2145.01 510.865C2145.01 510.864 2140.56 512.55 2140.12 512.714L2140.27 512.314C2137.32 512.831 2138.44 512.307 2136.04 514.96L2134.62 514.898C2136.74 509.582 2138.51 505.569 2141.05 500.441Z"/><path fill="#022B55" transform="matrix(0.0521739 0 0 0.0519481 -7.62939e-06 -9.53674e-07)" d="M997.358 344.335C1026.32 342.298 1055.15 349.736 1079.51 365.526C1075.34 377.092 1068.21 390.873 1063.25 402.823C1048.07 392.98 1028.46 385.948 1010.08 384.55C994.127 383.337 972.9 385.412 971.437 405.916C970.979 412.347 975.673 420.273 981.325 423.479C1008.48 439.15 1050.53 438.372 1073.12 461.394C1094.1 482.773 1089.7 526.09 1067.88 545.568C1047.12 564.11 1022.65 567.314 996.302 566.706C966.757 564.853 941.132 556.264 917.585 538.273C922.358 526.984 929.835 512.933 935.366 501.561C956.55 518.631 985.578 528.531 1012.84 527.117C1025.53 526.459 1043.47 518.437 1040.78 503.846C1036.57 480.95 993.256 478.188 975.377 470.272C963.967 465.221 953.983 463.248 944.285 454.811C918.851 435.362 921.642 393.66 940.057 370.39C953.986 352.788 975.282 346.484 997.358 344.335Z"/><path fill="#022B55" transform="matrix(0.0521739 0 0 0.0519481 -7.62939e-06 -9.53674e-07)" d="M1920.05 401.295C1940.35 396.493 1961.72 399.849 1979.56 410.642C1997.45 421.544 2010.23 439.147 2015.05 459.529C2015.39 460.955 2015.77 462.491 2015.92 463.944C2018.29 473.295 2018.89 486.65 2018.83 496.461C1991.63 498.044 1960.95 495.829 1933.41 496.225C1927.16 496.315 1905.56 495.489 1900.7 496.748L1921.89 498.476C1916.18 498.347 1909.48 497.853 1904.51 500.791C1902.45 504.703 1904.05 505.921 1907.06 508.739C1911.03 505.548 1907.51 501.778 1916.97 500.656L1918.32 501.129C1911.72 509.688 1913.06 513.089 1921.3 520.076C1932.92 529.933 1942.45 526.566 1955.05 526.786L1947.8 528.34C1964.09 528.188 1960.84 522.924 1970.23 519.971L1970.93 520.982C1973.66 519.316 1976.23 515.578 1978.28 512.955C1990.69 518.124 1999.36 520.369 2012.24 523.616C1999.23 546.834 1978.93 561.936 1952.52 566.047C1929.91 569.759 1906.76 564.323 1888.17 550.938C1834.51 511.706 1850.66 411.591 1920.05 401.295Z"/><path fill="#CDCBCC" transform="matrix(0.0521739 0 0 0.0519481 -7.62939e-06 -9.53674e-07)" d="M1970.93 520.982C1966.19 527.272 1953.19 532.216 1945.71 532.943C1934.37 534.091 1923.05 530.545 1914.4 523.129C1906.32 516.253 1901.51 507.327 1900.7 496.748L1921.89 498.476C1916.18 498.347 1909.48 497.853 1904.51 500.791C1902.45 504.703 1904.05 505.921 1907.06 508.739C1911.03 505.548 1907.51 501.778 1916.97 500.656L1918.32 501.129C1911.72 509.688 1913.06 513.089 1921.3 520.076C1932.92 529.933 1942.45 526.566 1955.05 526.786L1947.8 528.34C1964.09 528.188 1960.84 522.924 1970.23 519.971L1970.93 520.982Z"/><path fill="#001F48" transform="matrix(0.0521739 0 0 0.0519481 -7.62939e-06 -9.53674e-07)" d="M1920.05 401.295C1940.35 396.493 1961.72 399.849 1979.56 410.642C1997.45 421.544 2010.23 439.147 2015.05 459.529C2015.39 460.955 2015.77 462.491 2015.92 463.944L2015.73 471.991C2015.88 473.079 2009.95 450.715 2011.31 452.868C2007.12 446.201 2002.54 435.502 1998.23 429.359L1996.57 432.889C1990.51 424.813 1988.4 420.7 1978.34 415.112C1970.53 410.773 1952.57 404.924 1943.46 405.912C1942.16 406.053 1943.39 406.293 1941.21 405.522C1944.21 402.52 1947.27 405.789 1952.6 402.198C1942.82 400.609 1924.24 403.634 1920.05 401.295Z"/><path fill="#E5E5E5" transform="matrix(0.0521739 0 0 0.0519481 -7.62939e-06 -9.53674e-07)" d="M1931.2 433.217C1959.45 431.088 1971.15 442.729 1977.14 469.355C1967.25 468.936 1956.37 469.193 1946.4 469.23C1930.82 469.338 1915.23 469.25 1899.65 468.966C1903.69 450.484 1912.28 438.482 1931.2 433.217Z"/><path fill="#707172" transform="matrix(0.0521739 0 0 0.0519481 -7.62939e-06 -9.53674e-07)" d="M2866.79 399.312C2889.49 396.926 2916 404.243 2932.4 420.598C2952.71 440.857 2956.95 469.402 2957.12 496.876C2920.51 497.312 2882.42 495.157 2845.69 495.791C2842.9 495.84 2841.84 496.062 2839.79 497.763C2839.38 499.468 2839.32 500.649 2839.71 502.365C2846.44 531.838 2880.33 542.503 2904.03 525.232C2909.79 521.037 2911.52 518.276 2915.26 512.321L2932.77 518.154C2938.11 520.124 2944.88 522.127 2950.39 523.931C2949.01 526.794 2947.41 529.749 2945.54 532.329C2932.47 550.341 2912.79 562.433 2890.82 565.954C2868.51 569.463 2843.97 564.875 2826 551.224C2776.06 513.289 2785.44 421.537 2848.66 402.93C2854.87 401.102 2860.46 400.245 2866.79 399.312Z"/><path fill="#E5E5E5" transform="matrix(0.0521739 0 0 0.0519481 -7.62939e-06 -9.53674e-07)" d="M2868.08 432.276C2887.11 430.02 2900.42 435.233 2909.92 452.76C2912.2 456.978 2914.06 461.164 2912.57 465.931C2907.94 470.339 2893.54 468.894 2886.25 468.879C2870.08 469.088 2853.91 469.131 2837.74 469.009C2841.9 450.299 2849.7 439.006 2868.08 432.276Z"/><path fill="#022B55" transform="matrix(0.0521739 0 0 0.0519481 -7.62939e-06 -9.53674e-07)" d="M1110.22 453.207C1128.41 395.546 1212.34 379.895 1248.68 427.748C1264.6 443.183 1267.75 472.239 1268.03 493.1C1268.05 494.335 1268.05 495.57 1268.03 496.805C1229.84 497.984 1186.5 494.966 1149.25 496.982C1151.3 503.569 1152.63 507.999 1156.05 514.049C1170.67 539.96 1211.44 538.402 1226.69 513.95C1232.75 515.983 1256.59 522.211 1259.51 523.704C1260.22 527.632 1258.38 529.931 1256.1 533.357C1244.21 551.181 1224.92 562.351 1203.92 566.055C1181.28 570.217 1157.93 565.212 1138.99 552.142C1121.61 539.855 1109.85 521.133 1106.34 500.139C1103.84 485.327 1104.98 467.354 1110.22 453.207Z"/><path fill="#001F48" transform="matrix(0.0521739 0 0 0.0519481 -7.62939e-06 -9.53674e-07)" d="M1110.22 453.207C1128.41 395.546 1212.34 379.895 1248.68 427.748L1246.83 428.314C1244.29 426.438 1240.55 424.776 1239.67 424.028C1234.85 419.952 1226.66 411.092 1220.9 408.37C1208.88 402.7 1187.58 400.844 1174.67 402.911C1152.11 406.525 1135.26 417.082 1122.03 435.525C1117.86 441.346 1114.68 451.225 1111.31 455.233L1110.22 453.207Z"/><path fill="#E5E5E5" transform="matrix(0.0521739 0 0 0.0519481 -7.62939e-06 -9.53674e-07)" d="M1178.21 434.151C1207.34 431.792 1220 439.975 1226 469.111L1194.75 469.284C1182.26 469.134 1165.2 469.988 1152.59 468.852C1150.76 468.687 1150.01 466.881 1149.22 465.485C1148.39 453.52 1167.53 437.493 1178.21 434.151Z"/><path fill="#707172" transform="matrix(0.0521739 0 0 0.0519481 -7.62939e-06 -9.53674e-07)" d="M2322.93 338.216C2337.23 338.44 2351.53 338.452 2365.82 338.251C2365.39 361.611 2367.94 410.27 2364.69 430.479C2379.78 412.002 2393.83 399.143 2419.07 398.742C2444.43 398.341 2465.34 412.598 2470.48 438.004C2473.65 453.686 2472.85 473.554 2472.89 489.81C2473.03 514.53 2472.93 539.251 2472.6 563.969C2459.08 564.396 2443.07 563.824 2429.37 563.666C2428.6 547.186 2429.29 525.611 2429.35 508.75C2429.37 486.41 2436.4 437.537 2404.86 436.56C2389.76 436.092 2369.64 451.527 2367.56 466.386C2363.22 497.339 2365.03 531.828 2365.13 563.338C2351.03 563.466 2336.67 563.284 2322.55 563.246C2321.68 535.599 2322.18 505.246 2322.13 477.425C2321.92 431.02 2322.19 384.615 2322.93 338.216Z"/><path fill="#707172" transform="matrix(0.0521739 0 0 0.0519481 -7.62939e-06 -9.53674e-07)" d="M2571.58 399.457C2632.36 398.322 2644.65 430.887 2642.02 483.408C2641.39 496.061 2642.25 513.222 2642.79 526.084L2654.13 531.196C2654.18 542.248 2654.21 552.66 2653.73 563.711C2629.57 566.307 2607.24 567.292 2604.41 537.297C2603.03 539.171 2601.59 541.005 2600.1 542.797C2578.77 568.131 2538.1 574.789 2511.75 552.405C2503.33 542.764 2497.9 531.033 2498.51 518.178C2500.97 465.599 2562.28 465.622 2599.37 466.384C2597.93 430.692 2574.07 429.556 2545.23 438.965C2536.55 441.799 2529.5 446.571 2522.21 452.074C2517.31 441.972 2511.84 431.994 2506.54 422.082C2525.55 407.023 2547.84 401.044 2571.58 399.457Z"/><path fill="#E5E5E5" transform="matrix(0.0521739 0 0 0.0519481 -7.62939e-06 -9.53674e-07)" d="M2572.72 492.377C2582.98 491.5 2589.8 491.578 2599.96 492.866C2601.18 516.279 2592.76 531.674 2568.25 535.749C2532.21 538.427 2526.91 497.356 2572.72 492.377Z"/><defs><linearGradient id="gradient_3" gradientUnits="userSpaceOnUse" x1="3009.2498" y1="503.2562" x2="3091.592" y2="394.52762"><stop offset="0" stop-color="#0D978E"/><stop offset="1" stop-color="#37E2CA"/></linearGradient></defs><path fill="url(#gradient_3)" transform="matrix(0.0521739 0 0 0.0519481 -7.62939e-06 -9.53674e-07)" d="M2996.13 384.179C2999.31 357.414 3022.34 338.082 3046.9 357.173C3070.48 375.619 3091.45 400.006 3112.98 420.356C3129.75 436.201 3157.86 460.843 3137.55 484.882C3130.86 492.794 3098.59 527.95 3091.04 532.196C3078.52 546.085 3059.56 565.115 3044.93 576.613C3039.92 578.98 3036.56 580.293 3030.92 580.489C3008.61 582.901 2986.06 555.377 3002.32 534.791C3016.13 517.324 3032.82 501.605 3048.84 486.132C3052.08 481.198 3066.31 467.497 3071.08 462.453C3054.71 448.245 3039.44 433.499 3024.05 418.246C3019.33 413.569 3013.78 407.707 3008.68 403.726C3002.12 395.52 3000.72 393.553 2996.13 384.179Z"/><defs><linearGradient id="gradient_4" gradientUnits="userSpaceOnUse" x1="3023.8943" y1="577.89258" x2="3047.6567" y2="516.44086"><stop offset="0" stop-color="#016D6B"/><stop offset="1" stop-color="#0D8F8A"/></linearGradient></defs><path fill="url(#gradient_4)" transform="matrix(0.0521739 0 0 0.0519481 -7.62939e-06 -9.53674e-07)" d="M3048.84 486.132C3050.24 497.961 3024.29 506.614 3034.72 522.503C3049.25 529.388 3061.48 539.717 3076.58 541.223C3078.85 538.163 3075.2 538.945 3078.18 536.284L3080.43 537.722L3082.62 536.653L3080.33 535.321C3081.68 533.431 3086.12 531.881 3088.46 531.03L3091.04 532.196C3078.52 546.085 3059.56 565.115 3044.93 576.613C3039.92 578.98 3036.56 580.293 3030.92 580.489C3008.61 582.901 2986.06 555.377 3002.32 534.791C3016.13 517.324 3032.82 501.605 3048.84 486.132Z"/><path fill="#006A67" transform="matrix(0.0521739 0 0 0.0519481 -7.62939e-06 -9.53674e-07)" d="M3030.92 580.489C3031.6 576.167 3031.55 576.96 3034.97 574.663C3039.42 573.915 3040.71 574.755 3044.93 576.613C3039.92 578.98 3036.56 580.293 3030.92 580.489Z"/><path fill="#022B55" transform="matrix(0.0521739 0 0 0.0519481 -7.62939e-06 -9.53674e-07)" d="M1390.21 399.423C1390.57 399.413 1390.93 399.407 1391.28 399.406C1448.56 399.199 1444.09 451.342 1444.35 492.364L1444.44 563.996C1430.59 564.529 1414.55 564.084 1400.55 564.016L1400.51 499.071C1400.48 484.994 1401.52 466.891 1398.05 453.425C1392.84 433.146 1363.41 433.731 1351.32 447.176C1348.5 450.313 1346.74 452.441 1344.28 456.017C1332.61 477.389 1339.15 535.144 1337.37 563.341L1294.36 563.555C1293.52 543.388 1294.01 519.718 1294.05 499.375C1294.01 466.876 1294.19 434.377 1294.59 401.88C1305.96 401.681 1320.52 401.68 1331.65 402.908C1332.95 411.422 1333.32 421.398 1333.8 430.093C1351.83 409.251 1361.75 401.68 1390.21 399.423Z"/><path fill="#022B55" transform="matrix(0.0521739 0 0 0.0519481 -7.62939e-06 -9.53674e-07)" d="M1771.01 399.389C1820.81 396.282 1830.65 432.789 1829.49 473.741C1828.64 503.301 1831.03 534.137 1830.09 563.975C1815.58 564.142 1801.06 564.079 1786.55 563.785C1785.02 537.282 1787.19 509.079 1786.42 481.552C1785.78 458.652 1787.08 434.557 1753.88 437.967C1743.79 439.005 1736.43 447.27 1730.86 455.296C1721.34 471.723 1723.66 492.085 1723.78 510.654L1724.15 564.081C1709.66 564.135 1695.16 563.983 1680.67 563.626C1680.19 509.64 1680.05 455.652 1680.26 401.665C1692.69 401.68 1705.11 401.85 1717.53 402.173C1718.59 410.51 1718.83 421.795 1719.26 430.384C1736.23 410.563 1744.93 402.985 1771.01 399.389Z"/><path fill="#33D3C2" transform="matrix(0.0521739 0 0 0.0519481 -7.62939e-06 -9.53674e-07)" d="M421.2 183.602C419.075 180.64 419.992 180.94 417.12 180.352C405.754 186.724 392.422 208.918 375.335 202.661C329.381 185.834 382.866 145.673 398.775 129.166C417.672 109.559 436.034 90.2789 454.877 72.7657C473.674 89.4614 543.874 160.572 552.267 180.804C536.21 224.263 510.464 195.982 491.123 176.396C490.892 179.739 490.578 187.252 490.142 190.299C489.232 193.522 488.727 195.389 487.333 198.429L486.587 198.472C486.868 192.406 487.211 187.338 486.681 181.267L485.22 180.748L483.537 182.222C482.485 187.341 480.372 189.08 475.851 191.503C468.504 189.712 472.43 193.503 467.583 195.348L467.62 192.726C465.97 191.411 466.528 191.821 463.792 191.953L462.517 194.525L460.491 194.627C458.846 193.186 458.545 192.891 456.537 192.048C452.427 193.225 446.936 198.911 443.527 202.08C442.278 201.018 441.011 200.051 439.716 199.046C436.173 199.292 437.508 198.782 434.691 201.013C434.39 203.463 434.377 204.266 435.561 206.452L432.592 206.354C431.734 203.888 431.145 203.451 429.17 201.95C427.479 200.665 429.89 199.548 427.757 197.009C427.028 197.489 426.201 197.922 425.554 198.509L424.449 197.946C424.284 188.919 427.145 192.198 421.2 183.602Z"/><path fill="#022B55" transform="matrix(0.0521739 0 0 0.0519481 -7.62939e-06 -9.53674e-07)" d="M1496.12 356.52C1508.54 355.965 1521.04 356.164 1533.48 356.232C1533.58 371.524 1533.18 387.411 1533.01 402.748L1569.35 402.211L1569.17 437.375L1532.8 437.52C1532.74 453.608 1529.99 507.281 1534.98 519.187C1536.67 523.214 1539.56 526.441 1543.65 528.085C1552.06 531.462 1561.02 527.371 1568.7 524.067C1570.15 531.221 1577.58 554.551 1576.43 559.148C1563.59 564.31 1551.8 567.982 1538 568.233C1518.58 569.618 1494.02 555.94 1491.44 535.002C1487.72 504.766 1489.48 468.6 1489.48 437.902L1465.62 437.803C1465.34 426.588 1465.82 413.833 1466.04 402.503C1473.78 402.495 1481.52 402.531 1489.26 402.609C1489.8 392.918 1487.29 362.611 1492.07 356.869L1496.12 356.52Z"/><path fill="#022B55" transform="matrix(0.0521739 0 0 0.0519481 -7.62939e-06 -9.53674e-07)" d="M2045.92 337.974C2060.01 337.8 2074.11 337.801 2088.21 337.978C2088.2 398.828 2087.57 460.955 2088.54 521.682C2097.47 531.936 2101.49 529.815 2113.11 525.183C2113.78 535.394 2115.72 546.841 2116.79 557.117C2116.97 558.923 2115.16 559.859 2113.67 561.025C2095.58 568.529 2069.29 571.644 2054.36 555.758C2043.12 543.055 2044.89 516.724 2045.22 500.136C2046.28 446.428 2043.86 391.538 2045.92 337.974Z"/><path fill="#707172" transform="matrix(0.0521739 0 0 0.0519481 -7.62939e-06 -9.53674e-07)" d="M2775.07 399.361C2777.77 399.162 2778.47 399.004 2781.01 400.1C2782.66 403.52 2782.44 433.811 2782.5 439.291C2779.05 439.086 2775.59 438.947 2772.14 438.875C2725.12 438.176 2727.65 471.64 2727.48 505.669L2727.15 563.134C2715.79 564.156 2695.29 563.298 2683.22 563.087L2683.28 542.75C2683.78 495.87 2684.01 448.988 2683.98 402.106C2696.94 402.034 2709.9 402.074 2722.87 402.227L2723.99 432.376C2740.07 410.142 2746.56 401.891 2775.07 399.361Z"/><path fill="#022B55" transform="matrix(0.0521739 0 0 0.0519481 -7.62939e-06 -9.53674e-07)" d="M1598.43 402.245L1641.82 402.013L1641.73 501.162C1641.79 520.937 1642.47 544.113 1641.68 563.517C1628.4 564.088 1611.9 563.574 1598.39 563.519C1597.75 545.682 1598.23 525.276 1598.21 507.256C1598.08 472.252 1598.16 437.248 1598.43 402.245Z"/><path fill="#022B55" transform="matrix(0.0521739 0 0 0.0519481 -7.62939e-06 -9.53674e-07)" d="M1598.11 337.119L1641.78 337.072C1641.96 345.448 1642.96 374.527 1641.75 381.528L1597.9 381.742C1597.53 367.575 1597.43 351.187 1598.11 337.119Z"/><path fill="#CDCBCC" transform="matrix(0.0521739 0 0 0.0519481 -7.62939e-06 -9.53674e-07)" d="M3008.68 403.726C3007.51 404.4 3007.59 404.202 3006.09 404.238L3003.97 401.371L3002.75 401.987L3002.36 405.39L3000.7 404.753C2997.62 400.84 2992.95 393.385 2991.5 388.678C2994.25 388.024 2993.46 388.64 2994.84 386.628C2993.53 384.004 2993.81 376.64 2994.8 373.918C2995.26 374.838 2995.88 382.362 2996.13 384.179C3000.72 393.553 3002.12 395.52 3008.68 403.726Z"/></svg>